<?xml version="1.0" standalone="no"?>
<!DOCTYPE svg PUBLIC "-//W3C//DTD SVG 20010904//EN"
 "http://www.w3.org/TR/2001/REC-SVG-20010904/DTD/svg10.dtd">
<svg version="1.0" xmlns="http://www.w3.org/2000/svg"
 width="820.000000pt" height="200.000000pt" viewBox="0 0 820.000000 200.000000"
 preserveAspectRatio="xMidYMid meet">

<g transform="translate(0.000000,200.000000) scale(0.100000,-0.100000)"
fill="#000000" stroke="none">
<path d="M3002 1703 c-49 -54 -113 -164 -237 -407 -55 -107 -103 -196 -106
-196 -3 0 -10 80 -16 178 -12 195 -26 257 -58 257 -18 0 -21 -9 -26 -95 -16
-242 -144 -496 -274 -546 -53 -20 -106 -14 -148 17 l-28 21 15 -31 c59 -113
211 -65 311 99 67 110 125 290 141 440 6 56 8 61 15 36 5 -16 13 -113 20 -215
6 -102 15 -190 20 -195 18 -20 41 13 144 211 126 243 206 384 231 404 21 17
22 24 -35 -191 -56 -215 -74 -324 -75 -470 -1 -137 16 -203 57 -216 27 -8 63
21 95 76 l26 45 -41 -43 c-48 -51 -65 -48 -89 14 -14 37 -16 66 -11 177 7 143
35 297 94 515 27 100 34 135 25 144 -9 9 -21 2 -50 -29z"/>
<path d="M4103 1700 c-113 -23 -251 -99 -327 -181 -113 -121 -138 -261 -63
-346 41 -46 86 -66 217 -93 119 -25 153 -40 176 -75 46 -70 -78 -172 -159
-130 -28 14 -37 11 -37 -16 0 -55 136 -27 193 40 22 26 27 43 27 85 0 83 -38
107 -224 141 -107 19 -180 54 -201 95 -57 111 47 291 222 383 145 76 332 88
394 26 25 -25 24 -75 -2 -119 -16 -26 -17 -31 -5 -20 47 38 61 128 27 172 -34
43 -132 59 -238 38z"/>
<path d="M4531 1594 c-47 -60 -76 -236 -68 -419 5 -131 29 -218 73 -262 30
-29 84 -31 109 -3 23 25 28 25 40 -2 14 -32 69 -36 107 -8 l29 21 26 -20 c35
-29 56 -26 98 10 43 38 47 61 4 25 -17 -14 -41 -26 -53 -26 -32 0 -61 24 -53
44 4 9 2 16 -3 16 -11 0 -13 30 -4 54 10 25 25 8 19 -22 -3 -21 -2 -19 7 6 8
25 8 36 -1 45 -20 19 -41 -19 -41 -75 0 -37 -4 -50 -19 -58 -72 -38 -128 40
-86 120 34 65 112 92 150 50 22 -24 46 -11 26 14 -18 22 -66 29 -106 16 -46
-15 -104 -84 -112 -132 -6 -40 -41 -78 -73 -78 -22 0 -57 38 -70 77 -10 26 -8
38 9 72 79 155 122 401 89 511 -12 39 -18 45 -45 48 -24 2 -36 -3 -52 -24z
m68 -27 c38 -119 13 -318 -61 -485 l-21 -47 -8 30 c-27 87 -20 366 11 477 20
72 60 84 79 25z"/>
<path d="M3316 1578 c-30 -47 -56 -222 -56 -378 0 -74 -2 -80 -20 -80 -54 0
-134 -75 -146 -136 -9 -50 19 -88 71 -92 33 -3 42 2 79 41 l43 44 19 -36 c26
-49 64 -69 97 -52 13 7 32 27 42 44 l18 32 -30 -27 c-16 -16 -36 -28 -45 -28
-23 0 -53 41 -67 93 -11 38 -10 52 8 110 33 108 51 223 51 327 0 140 -26 197
-64 138z m39 -173 c0 -134 -22 -284 -45 -309 -28 -29 -18 413 11 465 23 44 34
-7 34 -156z m-85 -329 c0 -13 3 -37 6 -55 5 -26 1 -36 -29 -66 -40 -40 -68
-44 -97 -15 -22 22 -27 78 -10 110 14 27 59 49 98 50 27 0 32 -4 32 -24z"/>
<path d="M5002 1248 c-17 -17 -15 -47 4 -55 23 -9 51 23 38 44 -14 22 -27 26
-42 11z"/>
<path d="M5130 1160 c-10 -6 -11 -10 -2 -10 9 0 12 -25 12 -91 0 -87 -1 -92
-29 -120 -62 -61 -96 -27 -89 88 5 66 -3 96 -19 79 -12 -12 -19 -142 -9 -174
18 -61 67 -65 117 -10 l27 28 7 -30 c11 -51 33 -32 78 69 23 52 48 96 55 99 9
3 12 -18 12 -80 0 -93 7 -131 24 -125 12 4 70 146 63 154 -3 2 -13 -18 -22
-46 -9 -28 -21 -51 -25 -51 -5 0 -11 39 -12 88 -3 80 -5 87 -24 90 -16 2 -25
-6 -37 -30 -8 -18 -28 -60 -44 -93 l-28 -60 -5 115 c-5 119 -12 135 -50 110z"/>
<path d="M4304 1116 c-111 -49 -118 -236 -10 -236 83 0 149 95 126 181 -6 20
-16 41 -23 47 -22 19 -61 22 -93 8z m59 -36 c51 -41 39 -152 -19 -166 -43 -11
-77 7 -93 49 -34 91 42 171 112 117z"/>
<path d="M5631 1113 c-19 -10 -48 -35 -65 -56 -26 -32 -31 -48 -31 -91 0 -30
6 -60 14 -69 19 -23 73 -21 105 4 l26 20 26 -20 c38 -30 61 -26 105 18 l39 38
6 -33 c3 -19 10 -34 15 -34 5 0 20 22 34 50 27 52 34 84 9 38 -25 -48 -34 -32
-34 63 0 80 -2 90 -15 79 -11 -9 -15 -32 -15 -80 0 -65 -1 -69 -35 -99 -20
-17 -46 -31 -58 -31 -33 0 -62 24 -54 44 4 9 2 16 -3 16 -11 0 -13 30 -4 54
10 25 25 8 19 -22 -3 -21 -2 -19 7 6 8 25 8 36 -1 45 -20 19 -41 -19 -41 -75
0 -37 -4 -50 -19 -58 -72 -38 -128 40 -86 120 34 65 112 92 150 50 13 -14 22
-17 29 -10 15 15 -14 40 -55 46 -22 3 -46 -1 -68 -13z"/>
<path d="M5396 1088 c-9 -12 -16 -27 -16 -33 0 -5 5 -2 11 8 19 33 29 16 29
-52 0 -85 12 -121 40 -121 18 0 19 3 9 21 -6 12 -14 60 -17 107 -6 69 -10 87
-24 90 -9 2 -23 -7 -32 -20z"/>
<path d="M5955 1063 c-14 -21 -25 -42 -25 -48 0 -5 9 5 21 24 27 45 39 31 49
-60 6 -52 13 -77 26 -86 21 -15 43 -16 64 -3 12 8 9 10 -12 10 -34 0 -44 18
-53 100 -8 84 -13 100 -30 100 -8 0 -26 -17 -40 -37z"/>
</g>
</svg>
