<svg xmlns="http://www.w3.org/2000/svg" version="1.1" xmlns:xlink="http://www.w3.org/1999/xlink" xmlns:svgjs="http://svgjs.dev/svgjs" width="2000" height="1500" viewBox="0 0 2000 1500"><rect width="2000" height="1500" fill="#ffffff"></rect><g transform="matrix(0.75,0,0,0.75,249.09090948920687,654.7748192004434)"><svg viewBox="0 0 396 50" data-background-color="#ffffff" preserveAspectRatio="xMidYMid meet" height="252" width="2000" xmlns="http://www.w3.org/2000/svg" xmlns:xlink="http://www.w3.org/1999/xlink"><g id="tight-bounds" transform="matrix(1,0,0,1,0.24000010515069903,0.19184677236947323)"><svg viewBox="0 0 395.5199999999999 49.616306350110406" height="49.616306350110406" width="395.5199999999999"><g><svg viewBox="0 0 471.03704755613876 59.08959965057875" height="49.616306350110406" width="395.5199999999999"><g><rect width="3.8558329066252024" height="42.970367329111156" x="61.567411229028686" y="8.059616160733796" fill="#010c80" opacity="1" stroke-width="0" stroke="transparent" fill-opacity="1" class="rect-o-0" data-fill-palette-color="primary" rx="1%" id="o-0" data-palette-color="#010c80"></rect></g><g transform="matrix(1,0,0,1,75.5170475561387,8.166507621751482)"><svg viewBox="0 0 395.52000000000004 42.756584407075785" height="42.756584407075785" width="395.52000000000004"><g id="textblocktransform"><svg viewBox="0 0 395.52000000000004 42.756584407075785" height="42.756584407075785" width="395.52000000000004" id="textblock"><g><svg viewBox="0 0 395.52000000000004 42.756584407075785" height="42.756584407075785" width="395.52000000000004"><g transform="matrix(1,0,0,1,0,0)"><svg width="395.52000000000004" viewBox="3 -35.5 333.9700012207031 36.2599983215332" height="42.756584407075785" data-palette-color="#010c80"><g class="wordmark-text-0" data-fill-palette-color="primary" id="text-0"><path d="M37.99-25L37.99 0 31.01 0 31.01-25Q31.01-25.73 30.73-26.37 30.44-27 29.97-27.48 29.49-27.95 28.86-28.22 28.22-28.49 27.49-28.49L27.49-28.49Q26.76-28.49 26.12-28.22 25.49-27.95 25.01-27.48 24.54-27 24.27-26.37 24-25.73 24-25L24-25 24 0 16.99 0 16.99-25Q16.99-25.73 16.72-26.37 16.46-27 15.98-27.48 15.5-27.95 14.87-28.22 14.23-28.49 13.5-28.49L13.5-28.49Q12.77-28.49 12.13-28.22 11.5-27.95 11.02-27.48 10.55-27 10.28-26.37 10.01-25.73 10.01-25L10.01-25 10.01 0 3 0 3-25Q3-27.17 3.82-29.09 4.64-31.01 6.07-32.43 7.5-33.86 9.41-34.68 11.33-35.5 13.5-35.5L13.5-35.5Q15.45-35.5 17.26-34.8 19.07-34.11 20.51-32.79L20.51-32.79Q21.95-34.11 23.74-34.8 25.54-35.5 27.49-35.5L27.49-35.5Q29.66-35.5 31.58-34.68 33.5-33.86 34.92-32.43 36.35-31.01 37.17-29.09 37.99-27.17 37.99-25L37.99-25ZM72.29-17.5L72.29-17.5Q72.29-15.09 71.66-12.85 71.04-10.62 69.89-8.68 68.75-6.74 67.16-5.14 65.57-3.54 63.62-2.39 61.67-1.25 59.43-0.62 57.2 0 54.78 0L54.78 0 44.24 0 44.24-35.01 54.78-35.01Q57.2-35.01 59.43-34.39 61.67-33.76 63.62-32.62 65.57-31.47 67.16-29.87 68.75-28.27 69.89-26.33 71.04-24.39 71.66-22.16 72.29-19.92 72.29-17.5ZM65.28-17.5L65.28-17.5Q65.28-19.68 64.46-21.58 63.64-23.49 62.22-24.91 60.79-26.34 58.87-27.17 56.96-28 54.78-28L54.78-28 51.29-28 51.29-7.01 54.78-7.01Q56.96-7.01 58.87-7.82 60.79-8.64 62.22-10.07 63.64-11.5 64.46-13.42 65.28-15.33 65.28-17.5Z" fill="#010c80" data-fill-palette-color="primary"></path><path d="M87.47-24.51L87.47-24.51Q87.47-26.68 88.3-28.59 89.13-30.49 90.56-31.92 91.99-33.35 93.89-34.18 95.8-35.01 97.97-35.01L97.97-35.01 114.04-35.01 114.04-28 97.97-28Q97.24-28 96.6-27.73 95.97-27.47 95.49-26.99 95.02-26.51 94.75-25.88 94.48-25.24 94.48-24.51L94.48-24.51Q94.48-23.78 94.75-23.13 95.02-22.49 95.49-22.01 95.97-21.53 96.6-21.26 97.24-21 97.97-21L97.97-21 104.98-21Q107.15-21 109.07-20.18 110.98-19.36 112.41-17.93 113.84-16.5 114.66-14.59 115.48-12.67 115.48-10.5L115.48-10.5Q115.48-8.33 114.66-6.42 113.84-4.52 112.41-3.09 110.98-1.66 109.07-0.83 107.15 0 104.98 0L104.98 0 89.43 0 89.43-7.01 104.98-7.01Q105.71-7.01 106.35-7.28 106.98-7.54 107.46-8.02 107.93-8.5 108.2-9.13 108.47-9.77 108.47-10.5L108.47-10.5Q108.47-11.23 108.2-11.87 107.93-12.5 107.46-12.98 106.98-13.45 106.35-13.72 105.71-13.99 104.98-13.99L104.98-13.99 97.97-13.99Q95.8-13.99 93.89-14.82 91.99-15.65 90.56-17.08 89.13-18.51 88.3-20.42 87.47-22.34 87.47-24.51ZM154.37-17.36L154.37-17.36Q154.37-14.87 153.72-12.56 153.07-10.25 151.9-8.24 150.73-6.23 149.07-4.57 147.41-2.91 145.41-1.72 143.4-0.54 141.08 0.11 138.76 0.76 136.27 0.76L136.27 0.76Q133.78 0.76 131.48 0.11 129.17-0.54 127.16-1.72 125.14-2.91 123.48-4.57 121.82-6.23 120.64-8.24 119.45-10.25 118.81-12.56 118.16-14.87 118.16-17.36L118.16-17.36Q118.16-19.85 118.81-22.17 119.45-24.49 120.64-26.49 121.82-28.49 123.48-30.15 125.14-31.81 127.16-32.98 129.17-34.16 131.48-34.8 133.78-35.45 136.27-35.45L136.27-35.45Q138.76-35.45 141.08-34.8 143.4-34.16 145.41-32.98 147.41-31.81 149.07-30.15 150.73-28.49 151.9-26.49 153.07-24.49 153.72-22.17 154.37-19.85 154.37-17.36ZM147.41-17.36L147.41-17.36Q147.41-19.65 146.53-21.69 145.65-23.73 144.15-25.23 142.65-26.73 140.61-27.61 138.57-28.49 136.27-28.49L136.27-28.49Q133.95-28.49 131.93-27.61 129.9-26.73 128.39-25.23 126.87-23.73 126-21.69 125.12-19.65 125.12-17.36L125.12-17.36Q125.12-15.06 126-13.05 126.87-11.04 128.39-9.52 129.9-8.01 131.93-7.13 133.95-6.25 136.27-6.25L136.27-6.25Q138.57-6.25 140.61-7.13 142.65-8.01 144.15-9.52 145.65-11.04 146.53-13.05 147.41-15.06 147.41-17.36ZM183.46-7.01L183.46 0 158.95 0 158.95-35.01 165.96-35.01 165.96-7.01 183.46-7.01ZM193.69-13.99L207.7-13.99 207.7-21Q207.7-22.44 207.16-23.72 206.61-25 205.65-25.95 204.7-26.9 203.42-27.45 202.14-28 200.7-28L200.7-28Q199.26-28 197.98-27.45 196.69-26.9 195.74-25.95 194.79-25 194.24-23.72 193.69-22.44 193.69-21L193.69-21 193.69-13.99ZM214.71-21L214.71 0 207.7 0 207.7-7.01 193.69-7.01 193.69 0 186.71 0 186.71-21Q186.71-23.9 187.81-26.45 188.91-29 190.8-30.91 192.69-32.81 195.24-33.91 197.79-35.01 200.7-35.01L200.7-35.01Q203.6-35.01 206.15-33.91 208.71-32.81 210.61-30.91 212.51-29 213.61-26.45 214.71-23.9 214.71-21L214.71-21ZM227.8-35.01L227.8 0 220.79 0 220.79-35.01 227.8-35.01ZM269.03-25L269.03 0 262.05 0 262.05-25Q262.05-25.73 261.76-26.37 261.48-27 261.01-27.48 260.53-27.95 259.9-28.22 259.26-28.49 258.53-28.49L258.53-28.49Q257.8-28.49 257.16-28.22 256.53-27.95 256.05-27.48 255.58-27 255.31-26.37 255.04-25.73 255.04-25L255.04-25 255.04 0 248.03 0 248.03-25Q248.03-25.73 247.76-26.37 247.49-27 247.02-27.48 246.54-27.95 245.91-28.22 245.27-28.49 244.54-28.49L244.54-28.49Q243.81-28.49 243.17-28.22 242.54-27.95 242.06-27.48 241.59-27 241.32-26.37 241.05-25.73 241.05-25L241.05-25 241.05 0 234.04 0 234.04-25Q234.04-27.17 234.86-29.09 235.68-31.01 237.11-32.43 238.53-33.86 240.45-34.68 242.37-35.5 244.54-35.5L244.54-35.5Q246.49-35.5 248.3-34.8 250.11-34.11 251.55-32.79L251.55-32.79Q252.99-34.11 254.78-34.8 256.58-35.5 258.53-35.5L258.53-35.5Q260.7-35.5 262.62-34.68 264.54-33.86 265.96-32.43 267.39-31.01 268.21-29.09 269.03-27.17 269.03-25L269.03-25ZM281.87-13.99L295.88-13.99 295.88-21Q295.88-22.44 295.33-23.72 294.78-25 293.83-25.95 292.88-26.9 291.6-27.45 290.31-28 288.87-28L288.87-28Q287.43-28 286.15-27.45 284.87-26.9 283.92-25.95 282.97-25 282.42-23.72 281.87-22.44 281.87-21L281.87-21 281.87-13.99ZM302.89-21L302.89 0 295.88 0 295.88-7.01 281.87-7.01 281.87 0 274.88 0 274.88-21Q274.88-23.9 275.98-26.45 277.08-29 278.97-30.91 280.87-32.81 283.42-33.91 285.97-35.01 288.87-35.01L288.87-35.01Q291.78-35.01 294.33-33.91 296.88-32.81 298.79-30.91 300.69-29 301.79-26.45 302.89-23.9 302.89-21L302.89-21ZM336.97-35.01L336.97 0 329.47 0 315.97-23.05 315.97 0 308.96 0 308.96-35.01 316.46-35.01 329.96-11.94 329.96-35.01 336.97-35.01Z" fill="#77d4fc" data-fill-palette-color="secondary"></path></g></svg></g></svg></g></svg></g></svg></g><g><svg viewBox="0 0 51.47360780854386 59.08959965057875" height="59.08959965057875" width="51.47360780854386"><g><svg xmlns="http://www.w3.org/2000/svg" xmlns:xlink="http://www.w3.org/1999/xlink" version="1.1" x="0" y="0" viewBox="10.100000381469727 5.199999809265137 78.4000015258789 90" enable-background="new 0 0 100 100" xml:space="preserve" height="59.08959965057875" width="51.47360780854386" class="icon-icon-0" data-fill-palette-color="accent" id="icon-0"><polygon fill-rule="evenodd" clip-rule="evenodd" fill="#77d4fc" points="88.5,28.2 68.4,59.9 68.5,22.3 " data-fill-palette-color="accent"></polygon><polygon fill-rule="evenodd" clip-rule="evenodd" fill="#77d4fc" points="49.8,5.2 67.2,38.5 34.7,19.6 " data-fill-palette-color="accent"></polygon><polygon fill-rule="evenodd" clip-rule="evenodd" fill="#77d4fc" points="67.8,38.3 67.8,22.3 60.8,24.5 " data-fill-palette-color="accent"></polygon><polygon fill-rule="evenodd" clip-rule="evenodd" fill="#77d4fc" points="88.2,73.2 50.6,71.7 83.2,52.9 " data-fill-palette-color="accent"></polygon><polygon fill-rule="evenodd" clip-rule="evenodd" fill="#77d4fc" points="69.1,60.3 82.8,52.3 77.4,47.4 " data-fill-palette-color="accent"></polygon><polygon fill-rule="evenodd" clip-rule="evenodd" fill="#77d4fc" points="48.7,95.2 31.5,61.9 63.9,80.9 " data-fill-palette-color="accent"></polygon><polygon fill-rule="evenodd" clip-rule="evenodd" fill="#77d4fc" points="50.5,72.2 64.2,80.2 65.8,73.1 " data-fill-palette-color="accent"></polygon><polygon fill-rule="evenodd" clip-rule="evenodd" fill="#77d4fc" points="10.1,72 30.5,40.4 30.1,78 " data-fill-palette-color="accent"></polygon><polygon fill-rule="evenodd" clip-rule="evenodd" fill="#77d4fc" points="30.9,62.1 30.8,78 37.8,75.8 " data-fill-palette-color="accent"></polygon><polygon fill-rule="evenodd" clip-rule="evenodd" fill="#77d4fc" points="11,27 48.5,28.9 15.8,47.3 " data-fill-palette-color="accent"></polygon><polygon fill-rule="evenodd" clip-rule="evenodd" fill="#77d4fc" points="30,40.1 16.1,47.9 21.5,52.9 " data-fill-palette-color="accent"></polygon><polygon fill-rule="evenodd" clip-rule="evenodd" fill="#77d4fc" points="48.2,28.3 34.5,20.2 32.9,27.4 " data-fill-palette-color="accent"></polygon></svg></g></svg></g></svg></g><defs></defs></svg><rect width="395.5199999999999" height="49.616306350110406" fill="none" stroke="none" visibility="hidden"></rect></g></svg></g></svg>